<?xml version="1.0" encoding="UTF-8" standalone="no"?><!-- Generator: Gravit.io --><svg xmlns="http://www.w3.org/2000/svg" xmlns:xlink="http://www.w3.org/1999/xlink" style="isolation:isolate" viewBox="566.858 220.151 50.284 33.698" width="50.284pt" height="33.698pt"><defs><clipPath id="_clipPath_DzGltA9cpgM4hxh3EAoPiLA1qrKrZIbr"><rect x="566.858" y="220.151" width="50.284" height="33.698"/></clipPath></defs><g clip-path="url(#_clipPath_DzGltA9cpgM4hxh3EAoPiLA1qrKrZIbr)"><ellipse vector-effect="non-scaling-stroke" cx="592.0146198850152" cy="236.93874840443976" rx="24.453790775016955" ry="16.221051078409687" fill="rgb(242,195,120)" stroke-width="0.512" stroke="rgb(79,78,78)" stroke-linejoin="miter" stroke-linecap="square" stroke-miterlimit="3"/><path d=" M 567.945 236.624 C 567.468 244.993 578.54 252.888 592.036 252.888 C 605.532 252.888 616.052 245.401 616.12 236.692 C 615.205 235.697 605.532 236.667 592.036 236.667 C 578.54 236.667 568.103 234.948 567.945 236.624 Z " fill="rgb(204,122,0)"/><g><g><g><path d=" M 588.445 241.516 C 587.584 241.516 586.879 242.07 586.879 242.747 C 586.879 243.423 587.584 243.977 588.445 243.977 C 589.306 243.977 590.01 243.423 590.01 242.747 C 590.01 242.07 589.306 241.516 588.445 241.516 Z  M 583.748 231.674 L 583.748 232.904 L 585.314 232.904 L 588.132 237.579 L 587.036 239.056 C 586.958 239.24 586.879 239.486 586.879 239.671 C 586.879 240.348 587.584 240.901 588.445 240.901 L 597.838 240.901 L 597.838 239.671 L 588.758 239.671 C 588.68 239.671 588.601 239.609 588.601 239.548 L 588.601 239.486 L 589.306 238.441 L 595.098 238.441 C 595.724 238.441 596.194 238.195 596.429 237.825 L 599.247 233.827 C 599.403 233.704 599.403 233.643 599.403 233.52 C 599.403 233.15 599.09 232.904 598.62 232.904 L 587.036 232.904 L 586.331 231.674 L 583.748 231.674 Z  M 596.272 241.516 C 595.411 241.516 594.707 242.07 594.707 242.747 C 594.707 243.423 595.411 243.977 596.272 243.977 C 597.133 243.977 597.838 243.423 597.838 242.747 C 597.838 242.07 597.133 241.516 596.272 241.516 Z " fill="rgb(0,0,0)"/></g></g></g><ellipse vector-effect="non-scaling-stroke" cx="592" cy="237" rx="24.878110920931704" ry="16.585407280621126" fill="none" stroke-width="0.528" stroke="rgb(79,78,78)" stroke-linejoin="miter" stroke-linecap="square" stroke-miterlimit="3"/></g></svg>