<?xml version="1.0" encoding="UTF-8" standalone="no"?><!-- Generator: Gravit.io --><svg xmlns="http://www.w3.org/2000/svg" xmlns:xlink="http://www.w3.org/1999/xlink" style="isolation:isolate" viewBox="566.858 232.651 50.284 33.698" width="50.284pt" height="33.698pt"><defs><clipPath id="_clipPath_geU6tJ3gt6zCkQBDmLIZvkLrchMG2FLs"><rect x="566.858" y="232.651" width="50.284" height="33.698"/></clipPath></defs><g clip-path="url(#_clipPath_geU6tJ3gt6zCkQBDmLIZvkLrchMG2FLs)"><ellipse vector-effect="non-scaling-stroke" cx="592.0146198850152" cy="249.43874840443976" rx="24.453790775016955" ry="16.221051078409687" fill="rgb(242,195,120)" stroke-width="0.512" stroke="rgb(226,228,232)" stroke-opacity="100" stroke-linejoin="miter" stroke-linecap="square" stroke-miterlimit="3"/><g><g><g><path d=" M 588.866 254.016 C 588.005 254.016 587.3 254.57 587.3 255.247 C 587.3 255.923 588.005 256.477 588.866 256.477 C 589.727 256.477 590.431 255.923 590.431 255.247 C 590.431 254.57 589.727 254.016 588.866 254.016 Z  M 584.169 244.174 L 584.169 245.404 L 585.735 245.404 L 588.553 250.079 L 587.457 251.556 C 587.379 251.74 587.3 251.986 587.3 252.171 C 587.3 252.848 588.005 253.401 588.866 253.401 L 598.259 253.401 L 598.259 252.171 L 589.179 252.171 C 589.101 252.171 589.022 252.109 589.022 252.048 L 589.022 251.986 L 589.727 250.941 L 595.519 250.941 C 596.145 250.941 596.615 250.695 596.85 250.325 L 599.667 246.327 C 599.824 246.204 599.824 246.143 599.824 246.02 C 599.824 245.65 599.511 245.404 599.041 245.404 L 587.457 245.404 L 586.752 244.174 L 584.169 244.174 Z  M 596.693 254.016 C 595.832 254.016 595.128 254.57 595.128 255.247 C 595.128 255.923 595.832 256.477 596.693 256.477 C 597.554 256.477 598.259 255.923 598.259 255.247 C 598.259 254.57 597.554 254.016 596.693 254.016 Z " fill="rgb(131,131,131)"/></g></g></g><ellipse vector-effect="non-scaling-stroke" cx="592" cy="249.5" rx="24.878110920931704" ry="16.585407280621112" fill="none" stroke-width="0.528" stroke="rgb(235,235,235)" stroke-opacity="100" stroke-linejoin="miter" stroke-linecap="square" stroke-miterlimit="3"/></g></svg>