<?xml version="1.0" encoding="UTF-8" standalone="no"?><!-- Generator: Gravit.io --><svg xmlns="http://www.w3.org/2000/svg" xmlns:xlink="http://www.w3.org/1999/xlink" style="isolation:isolate" viewBox="659.335 421.738 50.284 33.698" width="50.284pt" height="33.698pt"><defs><clipPath id="_clipPath_HAvQhTd8pGLETHvRb5qZO41WW4Rl5gLL"><rect x="659.335" y="421.738" width="50.284" height="33.698"/></clipPath></defs><g clip-path="url(#_clipPath_HAvQhTd8pGLETHvRb5qZO41WW4Rl5gLL)"><ellipse vector-effect="non-scaling-stroke" cx="684.4916188270727" cy="438.5256647483603" rx="24.453790775016955" ry="16.221051078409687" fill="rgb(255,153,0)" stroke-width="0.512" stroke="rgb(79,78,78)" stroke-linejoin="miter" stroke-linecap="square" stroke-miterlimit="3"/><g><g><g><path d=" M 681.343 443.103 C 680.482 443.103 679.777 443.657 679.777 444.333 C 679.777 445.01 680.482 445.564 681.343 445.564 C 682.204 445.564 682.908 445.01 682.908 444.333 C 682.908 443.657 682.204 443.103 681.343 443.103 Z  M 676.646 433.261 L 676.646 434.491 L 678.212 434.491 L 681.03 439.166 L 679.934 440.643 C 679.856 440.827 679.777 441.073 679.777 441.258 C 679.777 441.934 680.482 442.488 681.343 442.488 L 690.736 442.488 L 690.736 441.258 L 681.656 441.258 C 681.578 441.258 681.499 441.196 681.499 441.135 L 681.499 441.073 L 682.204 440.028 L 687.996 440.028 C 688.622 440.028 689.092 439.781 689.327 439.412 L 692.144 435.414 C 692.301 435.291 692.301 435.229 692.301 435.106 C 692.301 434.737 691.988 434.491 691.518 434.491 L 679.934 434.491 L 679.229 433.261 L 676.646 433.261 Z  M 689.17 443.103 C 688.309 443.103 687.605 443.657 687.605 444.333 C 687.605 445.01 688.309 445.564 689.17 445.564 C 690.031 445.564 690.736 445.01 690.736 444.333 C 690.736 443.657 690.031 443.103 689.17 443.103 Z " fill="rgb(79,78,78)"/></g></g></g><ellipse vector-effect="non-scaling-stroke" cx="684.4769989420577" cy="438.58691634392056" rx="24.878110920931704" ry="16.585407280621098" fill="none" stroke-width="0.528" stroke="rgb(79,78,78)" stroke-linejoin="miter" stroke-linecap="square" stroke-miterlimit="3"/></g></svg>