<?xml version="1.0" encoding="UTF-8" standalone="no"?><!-- Generator: Gravit.io --><svg xmlns="http://www.w3.org/2000/svg" xmlns:xlink="http://www.w3.org/1999/xlink" style="isolation:isolate" viewBox="659.335 421.738 50.284 33.698" width="50.284pt" height="33.698pt"><defs><clipPath id="_clipPath_EmZKrtTBAbp8E1HEzc1Ywz7ZtH12xjcC"><rect x="659.335" y="421.738" width="50.284" height="33.698"/></clipPath></defs><g clip-path="url(#_clipPath_EmZKrtTBAbp8E1HEzc1Ywz7ZtH12xjcC)"><ellipse vector-effect="non-scaling-stroke" cx="684.4916188270729" cy="438.5256647483603" rx="24.453790775016955" ry="16.221051078409687" fill="rgb(255,153,0)" stroke-width="0.512" stroke="rgb(79,78,78)" stroke-linejoin="miter" stroke-linecap="square" stroke-miterlimit="3"/><path d=" M 660.422 438.211 C 659.945 446.58 671.017 454.475 684.513 454.475 C 698.009 454.475 708.529 446.988 708.597 438.279 C 707.682 437.283 698.009 438.253 684.513 438.253 C 671.017 438.253 660.58 436.535 660.422 438.211 Z " fill="rgb(204,122,0)"/><g><g><g><path d=" M 680.922 443.103 C 680.061 443.103 679.356 443.657 679.356 444.333 C 679.356 445.01 680.061 445.564 680.922 445.564 C 681.783 445.564 682.487 445.01 682.487 444.333 C 682.487 443.657 681.783 443.103 680.922 443.103 Z  M 676.225 433.261 L 676.225 434.491 L 677.791 434.491 L 680.609 439.166 L 679.513 440.643 C 679.435 440.827 679.356 441.073 679.356 441.258 C 679.356 441.934 680.061 442.488 680.922 442.488 L 690.315 442.488 L 690.315 441.258 L 681.235 441.258 C 681.157 441.258 681.078 441.196 681.078 441.135 L 681.078 441.073 L 681.783 440.028 L 687.575 440.028 C 688.201 440.028 688.671 439.781 688.906 439.412 L 691.724 435.414 C 691.88 435.291 691.88 435.229 691.88 435.106 C 691.88 434.737 691.567 434.491 691.097 434.491 L 679.513 434.491 L 678.808 433.261 L 676.225 433.261 Z  M 688.749 443.103 C 687.888 443.103 687.184 443.657 687.184 444.333 C 687.184 445.01 687.888 445.564 688.749 445.564 C 689.61 445.564 690.315 445.01 690.315 444.333 C 690.315 443.657 689.61 443.103 688.749 443.103 Z " fill="rgb(0,0,0)"/></g></g></g><ellipse vector-effect="non-scaling-stroke" cx="684.4769989420577" cy="438.58691634392056" rx="24.878110920931704" ry="16.585407280621098" fill="none" stroke-width="0.528" stroke="rgb(79,78,78)" stroke-linejoin="miter" stroke-linecap="square" stroke-miterlimit="3"/></g></svg>