<?xml version="1.0" encoding="UTF-8" standalone="no"?><!-- Generator: Gravit.io --><svg xmlns="http://www.w3.org/2000/svg" xmlns:xlink="http://www.w3.org/1999/xlink" style="isolation:isolate" viewBox="566.858 220.151 50.284 33.698" width="50.284pt" height="33.698pt"><defs><clipPath id="_clipPath_KdMnR15g8e9s48HPx9tXpd7y2w2cSlvT"><rect x="566.858" y="220.151" width="50.284" height="33.698"/></clipPath></defs><g clip-path="url(#_clipPath_KdMnR15g8e9s48HPx9tXpd7y2w2cSlvT)"><ellipse vector-effect="non-scaling-stroke" cx="592.014619885015" cy="236.93874840443976" rx="24.453790775016955" ry="16.221051078409687" fill="rgb(242,195,120)" stroke-width="0.512" stroke="rgb(79,78,78)" stroke-linejoin="miter" stroke-linecap="square" stroke-miterlimit="3"/><g><g><g><path d=" M 588.866 241.516 C 588.005 241.516 587.3 242.07 587.3 242.747 C 587.3 243.423 588.005 243.977 588.866 243.977 C 589.727 243.977 590.431 243.423 590.431 242.747 C 590.431 242.07 589.727 241.516 588.866 241.516 Z  M 584.169 231.674 L 584.169 232.904 L 585.735 232.904 L 588.553 237.579 L 587.457 239.056 C 587.379 239.24 587.3 239.486 587.3 239.671 C 587.3 240.348 588.005 240.901 588.866 240.901 L 598.259 240.901 L 598.259 239.671 L 589.179 239.671 C 589.101 239.671 589.022 239.609 589.022 239.548 L 589.022 239.486 L 589.727 238.441 L 595.519 238.441 C 596.145 238.441 596.615 238.195 596.85 237.825 L 599.667 233.827 C 599.824 233.704 599.824 233.643 599.824 233.52 C 599.824 233.15 599.511 232.904 599.041 232.904 L 587.457 232.904 L 586.752 231.674 L 584.169 231.674 Z  M 596.693 241.516 C 595.832 241.516 595.128 242.07 595.128 242.747 C 595.128 243.423 595.832 243.977 596.693 243.977 C 597.554 243.977 598.259 243.423 598.259 242.747 C 598.259 242.07 597.554 241.516 596.693 241.516 Z " fill="rgb(79,78,78)"/></g></g></g><ellipse vector-effect="non-scaling-stroke" cx="592" cy="237" rx="24.878110920931704" ry="16.585407280621126" fill="none" stroke-width="0.528" stroke="rgb(79,78,78)" stroke-linejoin="miter" stroke-linecap="square" stroke-miterlimit="3"/></g></svg>