<svg xmlns="http://www.w3.org/2000/svg" xmlns:xlink="http://www.w3.org/1999/xlink" version="1.1" x="0px" y="0px" viewBox="0 0 100 125" enable-background="new 0 0 100 100" xml:space="preserve"><circle cx="67.426" cy="87.9" r="4.026"/><circle cx="25.074" cy="87.9" r="4.026"/><path d="M81.1,39l-4.7,23.9c-0.4,2.3-2,3.9-4.1,3.9l-40.7,1.9l-5.1,8.1h44.1c2.3,0,4.2,2,4.2,4.3c0,0.8-0.7,1.7-1.5,1.7  c-0.8,0-1.5-0.8-1.5-1.6c0-0.6-0.5-1.4-1.2-1.4H26.9c-1.7,0-2.9-0.3-3.5-1.4c-0.8-1.5,0.2-2.9,0.4-3.2L29,67L17,27.1  c-0.2-0.4-1.8-1.5-6.2-1.5c0,0-1.603,0.062-1.088-1.75c0,0,0.125-1.203,2.588-1.05c6.3,0.3,7.5,2.9,7.7,3.7l1.5,5L77,34.9  C79.2,34.9,81.1,36.7,81.1,39z"/><text x="0" y="115" fill="#000000" font-size="5px" font-weight="bold" font-family="'Helvetica Neue', Helvetica, Arial-Unicode, Arial, Sans-serif">Created by Wes Breazell</text><text x="0" y="120" fill="#000000" font-size="5px" font-weight="bold" font-family="'Helvetica Neue', Helvetica, Arial-Unicode, Arial, Sans-serif">from the Noun Project</text></svg>