<svg xmlns="http://www.w3.org/2000/svg" xmlns:xlink="http://www.w3.org/1999/xlink" version="1.1" x="0px" y="0px" viewBox="0 0 100 125" enable-background="new 0 0 100 100" xml:space="preserve"><path d="M93.031,25.438c0-9.38-7.683-17.162-17.062-17.162s-17.162,7.782-17.162,17.162c0,3.093,0.843,6.062,2.24,8.556  l-37.063-2.271l-1.5-5c-0.2-0.8-1.4-3.4-7.7-3.7c-2.463-0.153-2.588,1.05-2.588,1.05c-0.516,1.812,1.088,1.75,1.088,1.75  c4.4,0,6,1.1,6.2,1.5l12,39.9l-5.2,8.2c-0.2,0.3-1.2,1.7-0.4,3.2c0.6,1.1,1.8,1.4,3.5,1.4h43.7c0.7,0,1.2,0.8,1.2,1.4  c0,0.8,0.7,1.6,1.5,1.6c0.8,0,1.5-0.9,1.5-1.7c0-2.3-1.9-4.3-4.2-4.3h-44.1l5.1-8.1l40.7-1.9c2.1,0,3.7-1.6,4.1-3.9l4.371-22.226  C93.338,35.884,93.031,25.438,93.031,25.438z M75.984,62.623c-0.1,0.3-0.3,1.4-1.3,1.4l-40.4,2l-9.4-31.4l38.29,2.248  c2.903,3.555,7.706,5.729,12.695,5.729c0,0,1.174,0.076,4.09-0.541L75.984,62.623z M87.044,26.736c0,0.599-0.798,0.898-1.297,0.898  h-6.785c-0.599,0-0.898,0.599-0.898,1.098v7.184c0,0.499-0.599,0.599-1.098,0.599h-2.095c-0.598,0-0.798,0-0.798-0.599v-7.184  c0-0.499-0.598-1.098-1.197-1.098h-6.785c-0.599,0-0.998-0.399-0.998-0.898V24.84c0-0.598,0.399-1.197,0.998-1.197h6.785  c0.499,0,1.197-0.299,1.197-0.798v-7.184c0-0.499,0.299-0.998,0.798-0.998h2.095c0.499,0,1.098,0.499,1.098,0.998v7.184  c0,0.499,0.399,0.798,0.898,0.798h6.785c0.499,0,1.297,0.698,1.297,1.197C87.044,24.84,87.044,26.735,87.044,26.736z"/><circle cx="69.91" cy="88.123" r="4.026"/><circle cx="27.558" cy="88.123" r="4.026"/><text x="0" y="115" fill="#000000" font-size="5px" font-weight="bold" font-family="'Helvetica Neue', Helvetica, Arial-Unicode, Arial, Sans-serif">Created by Wes Breazell</text><text x="0" y="120" fill="#000000" font-size="5px" font-weight="bold" font-family="'Helvetica Neue', Helvetica, Arial-Unicode, Arial, Sans-serif">from the Noun Project</text></svg>