<?xml version="1.0" standalone="no"?><!-- Generator: Gravit.io --><svg xmlns="http://www.w3.org/2000/svg" xmlns:xlink="http://www.w3.org/1999/xlink" style="isolation:isolate" viewBox="359.915 147.837 48.169 47.326" width="48.169px" height="47.326px"><defs><clipPath id="_clipPath_Q3Iy41534aP4azhUgnMVZHfjcK2CUCqo"><rect x="359.915" y="147.837" width="48.169" height="47.326"/></clipPath></defs><g clip-path="url(#_clipPath_Q3Iy41534aP4azhUgnMVZHfjcK2CUCqo)"><clipPath id="_clipPath_499L5so2gTVR9OvCkxAcy9wmRmIAxzNU"><rect x="360.624" y="148.533" width="46.752" height="45.934" transform="matrix(1,0,0,1,0,0)" fill="rgb(255,255,255)"/></clipPath><g clip-path="url(#_clipPath_499L5so2gTVR9OvCkxAcy9wmRmIAxzNU)"><g><g filter="url(#yn8GMW11bHdHQbfErJD9fnQF1k1soXWQ)"><ellipse vector-effect="non-scaling-stroke" cx="383.99978890016035" cy="171.50025127525188" rx="19.4927020710723" ry="19.151351035536152" fill="rgb(255,255,255)" stroke-width="0.99" stroke="rgb(226,228,231)" stroke-opacity="100" stroke-linejoin="miter" stroke-linecap="square" stroke-miterlimit="3"/></g><defs><filter id="yn8GMW11bHdHQbfErJD9fnQF1k1soXWQ" x="-200%" y="-200%" width="400%" height="400%" filterUnits="objectBoundingBox" color-interpolation-filters="sRGB"><feGaussianBlur xmlns="http://www.w3.org/2000/svg" in="SourceGraphic" stdDeviation="2.146804531419514"/><feOffset xmlns="http://www.w3.org/2000/svg" dx="0" dy="0" result="pf_100_offsetBlur"/><feFlood xmlns="http://www.w3.org/2000/svg" flood-color="#000000" flood-opacity="0.65"/><feComposite xmlns="http://www.w3.org/2000/svg" in2="pf_100_offsetBlur" operator="in" result="pf_100_dropShadow"/><feBlend xmlns="http://www.w3.org/2000/svg" in="SourceGraphic" in2="pf_100_dropShadow" mode="normal"/></filter></defs><ellipse vector-effect="non-scaling-stroke" cx="384.08549456456956" cy="171.55854347073597" rx="19.07429811247607" ry="18.861179050149246" fill="rgb(255,255,255)" stroke-width="2.85" stroke="rgb(226,228,232)" stroke-opacity="100" stroke-linejoin="miter" stroke-linecap="square" stroke-miterlimit="3"/></g></g><clipPath id="_clipPath_UBb2iVkzQInSmbeynRW9zrD2ZqHwkZ9A"><rect x="359.915" y="147.837" width="48.169" height="47.326" transform="matrix(1,0,0,1,0,0)" fill="rgb(255,255,255)"/></clipPath><g clip-path="url(#_clipPath_UBb2iVkzQInSmbeynRW9zrD2ZqHwkZ9A)"><g><g filter="url(#nDKrTzlv75qMv6Fr6G0pCL0t8NYBAUvX)"><ellipse vector-effect="non-scaling-stroke" cx="383.9997822385891" cy="171.50025888914328" rx="20.083350436527837" ry="19.731656123263917" fill="rgb(255,255,255)" stroke-width="1.02" stroke="rgb(226,228,231)" stroke-opacity="100" stroke-linejoin="miter" stroke-linecap="square" stroke-miterlimit="3"/></g><defs><filter id="nDKrTzlv75qMv6Fr6G0pCL0t8NYBAUvX" x="-200%" y="-200%" width="400%" height="400%" filterUnits="objectBoundingBox" color-interpolation-filters="sRGB"><feGaussianBlur xmlns="http://www.w3.org/2000/svg" in="SourceGraphic" stdDeviation="2.146804531419514"/><feOffset xmlns="http://www.w3.org/2000/svg" dx="0" dy="0" result="pf_100_offsetBlur"/><feFlood xmlns="http://www.w3.org/2000/svg" flood-color="#000000" flood-opacity="0.65"/><feComposite xmlns="http://www.w3.org/2000/svg" in2="pf_100_offsetBlur" operator="in" result="pf_100_dropShadow"/><feBlend xmlns="http://www.w3.org/2000/svg" in="SourceGraphic" in2="pf_100_dropShadow" mode="normal"/></filter></defs><ellipse vector-effect="non-scaling-stroke" cx="384.0911644668929" cy="171.52884745047263" rx="20.55313641165128" ry="20.19321533082561" fill="none" stroke-width="1.03" stroke="rgb(79,78,78)" stroke-linejoin="miter" stroke-linecap="square" stroke-miterlimit="3"/></g></g><g><g><path d=" M 384.988 167.822 L 384.988 165.848 C 384.988 165.504 384.683 165.19 384.202 165.036 C 383.722 164.883 383.145 164.917 382.714 165.124 L 376.402 168.162 C 375.952 168.286 375.659 168.447 375.47 168.612 L 371.832 170.363 C 371.474 170.535 371.265 170.805 371.267 171.091 C 371.268 171.377 371.481 171.645 371.84 171.816 L 382.723 176.974 C 383.153 177.178 383.728 177.209 384.207 177.055 C 384.686 176.901 384.988 176.587 384.988 176.245 L 384.988 173.9 C 384.997 173.9 385.004 173.9 385.013 173.9 C 387.57 173.9 392.124 174.363 393.907 177.465 C 394.114 177.824 394.649 178.059 395.238 178.059 C 395.291 178.059 395.343 178.057 395.395 178.053 C 396.044 178.007 396.56 177.684 396.646 177.271 C 396.681 177.103 397.45 173.155 393.678 170.371 C 391.642 168.869 388.723 168.014 384.988 167.822 Z  M 385.013 172.086 C 384.053 172.086 383.43 172.142 383.362 172.148 C 382.666 172.214 382.149 172.596 382.149 173.046 L 382.149 174.443 L 375.056 171.082 L 377.422 169.943 C 377.512 169.899 377.594 169.849 377.664 169.794 C 377.768 169.765 377.865 169.729 377.955 169.686 L 382.149 167.667 L 382.149 168.687 C 382.149 169.184 382.774 169.588 383.552 169.595 C 387.108 169.621 389.789 170.279 391.52 171.55 C 392.48 172.255 393.06 173.081 393.406 173.875 C 390.512 172.308 386.853 172.086 385.013 172.086 Z " fill="rgb(32,37,31)"/></g></g></g></svg>