<?xml version="1.0" standalone="no"?><!-- Generator: Gravit.io --><svg xmlns="http://www.w3.org/2000/svg" xmlns:xlink="http://www.w3.org/1999/xlink" style="isolation:isolate" viewBox="359.915 159.837 48.169 47.326" width="48.169px" height="47.326px"><defs><clipPath id="_clipPath_opqRBQ6Tjm5oPCf8n4o2XLiddwwiiAeW"><rect x="359.915" y="159.837" width="48.169" height="47.326"/></clipPath></defs><g clip-path="url(#_clipPath_opqRBQ6Tjm5oPCf8n4o2XLiddwwiiAeW)"><clipPath id="_clipPath_nhcHr5KUXbizoYlIuSQaDbniafidQChl"><rect x="360.625" y="160.533" width="46.752" height="45.934" transform="matrix(1,0,0,1,0,0)" fill="rgb(255,255,255)"/></clipPath><g clip-path="url(#_clipPath_nhcHr5KUXbizoYlIuSQaDbniafidQChl)"><g><g filter="url(#crHOaJaKoeOtmWd5tUwBwjKYGODGVTi7)"><ellipse vector-effect="non-scaling-stroke" cx="384.00132773993863" cy="183.50025127525183" rx="19.4927020710723" ry="19.151351035536152" fill="rgb(255,255,255)" stroke-width="0.99" stroke="rgb(226,228,231)" stroke-opacity="100" stroke-linejoin="miter" stroke-linecap="square" stroke-miterlimit="3"/></g><defs><filter id="crHOaJaKoeOtmWd5tUwBwjKYGODGVTi7" x="-200%" y="-200%" width="400%" height="400%" filterUnits="objectBoundingBox" color-interpolation-filters="sRGB"><feGaussianBlur xmlns="http://www.w3.org/2000/svg" in="SourceGraphic" stdDeviation="2.146804531419514"/><feOffset xmlns="http://www.w3.org/2000/svg" dx="0" dy="0" result="pf_100_offsetBlur"/><feFlood xmlns="http://www.w3.org/2000/svg" flood-color="#000000" flood-opacity="0.65"/><feComposite xmlns="http://www.w3.org/2000/svg" in2="pf_100_offsetBlur" operator="in" result="pf_100_dropShadow"/><feBlend xmlns="http://www.w3.org/2000/svg" in="SourceGraphic" in2="pf_100_dropShadow" mode="normal"/></filter></defs><ellipse vector-effect="non-scaling-stroke" cx="384.08703340434784" cy="183.5585434707359" rx="20.078208539448497" ry="19.853872684367616" fill="rgb(255,255,255)" stroke-width="1" stroke="rgb(226,228,232)" stroke-opacity="100" stroke-linejoin="miter" stroke-linecap="square" stroke-miterlimit="3"/></g></g><clipPath id="_clipPath_TNSKcNGWg6Ho4Of99zVzAIQGZ2YHlMco"><rect x="359.915" y="159.837" width="48.169" height="47.326" transform="matrix(1,0,0,1,0,0)" fill="rgb(255,255,255)"/></clipPath><g clip-path="url(#_clipPath_TNSKcNGWg6Ho4Of99zVzAIQGZ2YHlMco)"><g><g filter="url(#wPpeiJXLyJ4DOYU8no9v09c9mdrHWnjg)"><ellipse vector-effect="non-scaling-stroke" cx="383.9997822385891" cy="183.50025888914328" rx="20.083350436527837" ry="19.731656123263917" fill="rgb(255,255,255)" stroke-width="1.02" stroke="rgb(226,228,231)" stroke-opacity="100" stroke-linejoin="miter" stroke-linecap="square" stroke-miterlimit="3"/></g><defs><filter id="wPpeiJXLyJ4DOYU8no9v09c9mdrHWnjg" x="-200%" y="-200%" width="400%" height="400%" filterUnits="objectBoundingBox" color-interpolation-filters="sRGB"><feGaussianBlur xmlns="http://www.w3.org/2000/svg" in="SourceGraphic" stdDeviation="2.146804531419514"/><feOffset xmlns="http://www.w3.org/2000/svg" dx="0" dy="0" result="pf_100_offsetBlur"/><feFlood xmlns="http://www.w3.org/2000/svg" flood-color="#000000" flood-opacity="0.65"/><feComposite xmlns="http://www.w3.org/2000/svg" in2="pf_100_offsetBlur" operator="in" result="pf_100_dropShadow"/><feBlend xmlns="http://www.w3.org/2000/svg" in="SourceGraphic" in2="pf_100_dropShadow" mode="normal"/></filter></defs><ellipse vector-effect="non-scaling-stroke" cx="384.0911644668929" cy="183.52884745047263" rx="20.55313641165128" ry="20.19321533082561" fill="none" stroke-width="1.03" stroke="rgb(79,78,78)" stroke-linejoin="miter" stroke-linecap="square" stroke-miterlimit="3"/></g></g><g><g><path d=" M 384.989 179.822 L 384.989 177.848 C 384.989 177.504 384.685 177.19 384.204 177.036 C 383.723 176.883 383.146 176.917 382.716 177.124 L 376.404 180.162 C 375.953 180.286 375.661 180.447 375.472 180.612 L 371.833 182.363 C 371.476 182.535 371.266 182.805 371.268 183.091 C 371.27 183.377 371.482 183.645 371.842 183.816 L 382.724 188.974 C 383.154 189.178 383.729 189.209 384.208 189.055 C 384.687 188.901 384.989 188.587 384.989 188.245 L 384.989 185.9 C 384.998 185.9 385.006 185.9 385.015 185.9 C 387.571 185.9 392.126 186.363 393.908 189.465 C 394.115 189.824 394.651 190.059 395.24 190.059 C 395.292 190.059 395.344 190.057 395.397 190.053 C 396.046 190.007 396.562 189.684 396.648 189.271 C 396.682 189.103 397.452 185.155 393.679 182.371 C 391.643 180.869 388.725 180.014 384.989 179.822 Z  M 385.015 184.086 C 384.055 184.086 383.432 184.142 383.363 184.148 C 382.667 184.214 382.151 184.596 382.151 185.046 L 382.151 186.443 L 375.058 183.082 L 377.423 181.943 C 377.514 181.899 377.596 181.849 377.666 181.794 C 377.769 181.765 377.866 181.729 377.957 181.686 L 382.151 179.667 L 382.151 180.687 C 382.151 181.184 382.776 181.588 383.553 181.595 C 387.11 181.621 389.791 182.279 391.522 183.55 C 392.481 184.255 393.061 185.081 393.408 185.875 C 390.514 184.308 386.855 184.086 385.015 184.086 Z " fill="rgb(79,78,78)"/></g></g></g></svg>