<?xml version="1.0" standalone="no"?><!-- Generator: Gravit.io --><svg xmlns="http://www.w3.org/2000/svg" xmlns:xlink="http://www.w3.org/1999/xlink" style="isolation:isolate" viewBox="187.748 80.387 48.169 47.326" width="48.169px" height="47.326px"><defs><clipPath id="_clipPath_6wcqC0faelPyXQsztu1MzcS1IK9iqZCH"><rect x="187.748" y="80.387" width="48.169" height="47.326"/></clipPath></defs><g clip-path="url(#_clipPath_6wcqC0faelPyXQsztu1MzcS1IK9iqZCH)"><clipPath id="_clipPath_JkOoIBhAUQIQDs5j0BL8LnckPdSbFMPM"><rect x="188.457" y="81.083" width="46.752" height="45.934" transform="matrix(1,0,0,1,0,0)" fill="rgb(255,255,255)"/></clipPath><g clip-path="url(#_clipPath_JkOoIBhAUQIQDs5j0BL8LnckPdSbFMPM)"><g><g filter="url(#XzV1cqMJCcwWv7SYFN2k1ec7J35m2K2x)"><ellipse vector-effect="non-scaling-stroke" cx="211.83349356979312" cy="104.04997149564292" rx="19.4927020710723" ry="19.151351035536152" fill="rgb(255,255,255)" stroke-width="0.99" stroke="rgb(226,228,231)" stroke-opacity="100" stroke-linejoin="miter" stroke-linecap="square" stroke-miterlimit="3"/></g><defs><filter id="XzV1cqMJCcwWv7SYFN2k1ec7J35m2K2x" x="-200%" y="-200%" width="400%" height="400%" filterUnits="objectBoundingBox" color-interpolation-filters="sRGB"><feGaussianBlur xmlns="http://www.w3.org/2000/svg" in="SourceGraphic" stdDeviation="2.146804531419514"/><feOffset xmlns="http://www.w3.org/2000/svg" dx="0" dy="0" result="pf_100_offsetBlur"/><feFlood xmlns="http://www.w3.org/2000/svg" flood-color="#000000" flood-opacity="0.65"/><feComposite xmlns="http://www.w3.org/2000/svg" in2="pf_100_offsetBlur" operator="in" result="pf_100_dropShadow"/><feBlend xmlns="http://www.w3.org/2000/svg" in="SourceGraphic" in2="pf_100_dropShadow" mode="normal"/></filter></defs><ellipse vector-effect="non-scaling-stroke" cx="211.91919923420232" cy="104.10826369112701" rx="20.078208539448497" ry="19.85387268436763" fill="rgb(255,255,255)" stroke-width="1" stroke="rgb(226,228,232)" stroke-opacity="100" stroke-linejoin="miter" stroke-linecap="square" stroke-miterlimit="3"/></g></g><clipPath id="_clipPath_59UeA6IZWlY3SlbrdrvMf2633iHmT71F"><rect x="187.748" y="80.387" width="48.169" height="47.326" transform="matrix(1,0,0,1,0,0)" fill="rgb(255,255,255)"/></clipPath><g clip-path="url(#_clipPath_59UeA6IZWlY3SlbrdrvMf2633iHmT71F)"><g><g filter="url(#rIG0W9TSqnSVrTA7GbKxtMJPbHtSIfN2)"><ellipse vector-effect="non-scaling-stroke" cx="211.83194806844352" cy="104.04997910953438" rx="20.083350436527866" ry="19.731656123263917" fill="rgb(255,255,255)" stroke-width="1.02" stroke="rgb(226,228,231)" stroke-opacity="100" stroke-linejoin="miter" stroke-linecap="square" stroke-miterlimit="3"/></g><defs><filter id="rIG0W9TSqnSVrTA7GbKxtMJPbHtSIfN2" x="-200%" y="-200%" width="400%" height="400%" filterUnits="objectBoundingBox" color-interpolation-filters="sRGB"><feGaussianBlur xmlns="http://www.w3.org/2000/svg" in="SourceGraphic" stdDeviation="2.146804531419514"/><feOffset xmlns="http://www.w3.org/2000/svg" dx="0" dy="0" result="pf_100_offsetBlur"/><feFlood xmlns="http://www.w3.org/2000/svg" flood-color="#000000" flood-opacity="0.65"/><feComposite xmlns="http://www.w3.org/2000/svg" in2="pf_100_offsetBlur" operator="in" result="pf_100_dropShadow"/><feBlend xmlns="http://www.w3.org/2000/svg" in="SourceGraphic" in2="pf_100_dropShadow" mode="normal"/></filter></defs><ellipse vector-effect="non-scaling-stroke" cx="211.92333029674734" cy="104.07856767086372" rx="20.55313641165128" ry="20.193215330825623" fill="none" stroke-width="1.03" stroke="rgb(235,235,235)" stroke-opacity="100" stroke-linejoin="miter" stroke-linecap="square" stroke-miterlimit="3"/></g></g><g><g><path d=" M 212.822 100.372 L 212.822 98.397 C 212.822 98.054 212.517 97.739 212.036 97.586 C 211.555 97.433 210.978 97.467 210.548 97.673 L 204.236 100.712 C 203.785 100.836 203.493 100.996 203.304 101.161 L 199.665 102.912 C 199.308 103.085 199.098 103.355 199.1 103.64 C 199.102 103.926 199.315 104.195 199.674 104.365 L 210.557 109.523 C 210.986 109.727 211.561 109.759 212.04 109.605 C 212.519 109.451 212.822 109.137 212.822 108.795 L 212.822 106.449 C 212.83 106.449 212.838 106.449 212.847 106.449 C 215.403 106.449 219.958 106.912 221.741 110.014 C 221.947 110.374 222.483 110.608 223.072 110.608 C 223.125 110.608 223.176 110.607 223.229 110.603 C 223.878 110.557 224.394 110.234 224.48 109.821 C 224.515 109.653 225.284 105.705 221.512 102.921 C 219.476 101.419 216.557 100.563 212.822 100.372 Z  M 212.847 104.636 C 211.887 104.636 211.264 104.692 211.195 104.698 C 210.499 104.763 209.983 105.146 209.983 105.595 L 209.983 106.993 L 202.89 103.631 L 205.255 102.493 C 205.346 102.449 205.428 102.398 205.498 102.344 C 205.601 102.315 205.698 102.279 205.789 102.236 L 209.983 100.216 L 209.983 101.237 C 209.983 101.734 210.608 102.138 211.386 102.144 C 214.942 102.171 217.623 102.829 219.354 104.1 C 220.313 104.805 220.893 105.631 221.24 106.425 C 218.346 104.858 214.687 104.636 212.847 104.636 Z " fill="rgb(131,131,131)"/></g></g></g></svg>