<?xml version="1.0" encoding="UTF-8" standalone="no"?><!-- Generator: Gravit.io --><svg xmlns="http://www.w3.org/2000/svg" xmlns:xlink="http://www.w3.org/1999/xlink" style="isolation:isolate" viewBox="624.654 347.241 50.284 33.698" width="50.284pt" height="33.698pt"><defs><clipPath id="_clipPath_HBtqtAa1F1rHKpbaR1UPwMX8T9UUdYa9"><rect x="624.654" y="347.241" width="50.284" height="33.698"/></clipPath></defs><g clip-path="url(#_clipPath_HBtqtAa1F1rHKpbaR1UPwMX8T9UUdYa9)"><ellipse vector-effect="non-scaling-stroke" cx="649.7961850147443" cy="364.0900824061971" rx="24.453790775016955" ry="16.221051078409687" fill="rgb(152,238,146)" stroke-width="0.512" stroke="rgb(226,228,232)" stroke-opacity="100" stroke-linejoin="miter" stroke-linecap="square" stroke-miterlimit="3"/><ellipse vector-effect="non-scaling-stroke" cx="649.7961850147443" cy="364.0900824061971" rx="24.878110920931704" ry="16.585407280621098" fill="none" stroke-width="0.528" stroke="rgb(235,235,235)" stroke-opacity="100" stroke-linejoin="miter" stroke-linecap="square" stroke-miterlimit="3"/><g><path d=" M 660.955 358.975 C 660.955 356.996 659.085 355.353 656.802 355.353 C 654.519 355.353 652.625 356.996 652.625 358.975 C 652.625 359.628 652.83 360.254 653.17 360.781 L 644.149 360.302 L 643.784 359.246 C 643.735 359.078 643.443 358.529 641.91 358.466 C 641.31 358.433 641.28 358.687 641.28 358.687 C 641.154 359.069 641.545 359.056 641.545 359.056 C 642.616 359.056 643.005 359.289 643.054 359.373 L 645.975 367.793 L 644.709 369.524 C 644.66 369.587 644.417 369.882 644.612 370.199 C 644.758 370.431 645.05 370.494 645.463 370.494 L 656.1 370.494 C 656.27 370.494 656.392 370.663 656.392 370.79 C 656.392 370.959 656.562 371.128 656.757 371.128 C 656.952 371.128 657.122 370.938 657.122 370.769 C 657.122 370.283 656.66 369.861 656.1 369.861 L 645.366 369.861 L 646.607 368.152 L 656.514 367.751 C 657.025 367.751 657.414 367.413 657.511 366.928 L 658.575 362.238 C 661.03 361.18 660.955 358.975 660.955 358.975 Z  M 656.806 366.822 C 656.781 366.886 656.733 367.118 656.489 367.118 L 646.656 367.54 L 644.368 360.914 L 653.688 361.388 C 654.394 362.138 655.563 362.597 656.778 362.597 C 656.778 362.597 657.063 362.613 657.773 362.483 L 656.806 366.822 Z  M 659.498 359.249 C 659.498 359.375 659.303 359.439 659.182 359.439 L 657.53 359.439 C 657.385 359.439 657.312 359.565 657.312 359.67 L 657.312 361.186 C 657.312 361.292 657.166 361.313 657.045 361.313 L 656.535 361.313 C 656.389 361.313 656.341 361.313 656.341 361.186 L 656.341 359.67 C 656.341 359.565 656.195 359.439 656.049 359.439 L 654.398 359.439 C 654.252 359.439 654.155 359.354 654.155 359.249 L 654.155 358.849 C 654.155 358.723 654.252 358.596 654.398 358.596 L 656.049 358.596 C 656.171 358.596 656.341 358.533 656.341 358.428 L 656.341 356.912 C 656.341 356.807 656.413 356.701 656.535 356.701 L 657.045 356.701 C 657.166 356.701 657.312 356.807 657.312 356.912 L 657.312 358.428 C 657.312 358.533 657.409 358.596 657.53 358.596 L 659.182 358.596 C 659.303 358.596 659.498 358.744 659.498 358.849 C 659.498 358.849 659.498 359.249 659.498 359.249 Z " fill="rgb(131,131,131)"/><ellipse vector-effect="non-scaling-stroke" cx="655.2970522407813" cy="371.9771372390992" rx="0.9799093383824129" ry="0.8496202592014015" fill="rgb(131,131,131)"/><ellipse vector-effect="non-scaling-stroke" cx="644.9887759618017" cy="371.9771372390992" rx="0.9799093383824129" ry="0.8496202592014015" fill="rgb(131,131,131)"/></g></g></svg>