<?xml version="1.0" encoding="UTF-8" standalone="no"?><!-- Generator: Gravit.io --><svg xmlns="http://www.w3.org/2000/svg" xmlns:xlink="http://www.w3.org/1999/xlink" style="isolation:isolate" viewBox="541.528 270.082 50.284 33.698" width="50.284pt" height="33.698pt"><defs><clipPath id="_clipPath_GfnAUfZmUeMcUV5RfTUowKLqVEe904rR"><rect x="541.528" y="270.082" width="50.284" height="33.698"/></clipPath></defs><g clip-path="url(#_clipPath_GfnAUfZmUeMcUV5RfTUowKLqVEe904rR)"><ellipse vector-effect="non-scaling-stroke" cx="566.6679142547416" cy="286.8703237873236" rx="24.453790775016955" ry="16.221051078409687" fill="rgb(152,238,146)" stroke-width="0.512" stroke="rgb(79,78,78)" stroke-linejoin="miter" stroke-linecap="square" stroke-miterlimit="3"/><ellipse vector-effect="non-scaling-stroke" cx="566.6701144625156" cy="286.9315753828838" rx="24.878110920931704" ry="16.585407280621098" fill="none" stroke-width="0.528" stroke="rgb(79,78,78)" stroke-linejoin="miter" stroke-linecap="square" stroke-miterlimit="3"/><path d=" M 542.541 286.504 C 542.065 294.874 553.136 302.768 566.632 302.768 C 580.128 302.768 590.648 295.282 590.716 286.573 C 589.801 285.577 580.128 286.547 566.632 286.547 C 553.136 286.547 542.699 284.829 542.541 286.504 Z " fill="rgb(149,250,148)"/><path d=" M 576.52 279.769 C 576.52 277.789 574.65 276.147 572.367 276.147 C 570.084 276.147 568.19 277.789 568.19 279.769 C 568.19 280.422 568.395 281.048 568.735 281.574 L 559.714 281.095 L 559.349 280.04 C 559.3 279.871 559.008 279.323 557.475 279.259 C 556.875 279.227 556.845 279.481 556.845 279.481 C 556.719 279.863 557.11 279.85 557.11 279.85 C 558.181 279.85 558.57 280.082 558.619 280.167 L 561.54 288.587 L 560.274 290.317 C 560.225 290.381 559.982 290.676 560.177 290.993 C 560.323 291.225 560.615 291.288 561.028 291.288 L 571.665 291.288 C 571.835 291.288 571.957 291.457 571.957 291.584 C 571.957 291.752 572.127 291.921 572.322 291.921 C 572.517 291.921 572.687 291.731 572.687 291.562 C 572.687 291.077 572.225 290.655 571.665 290.655 L 560.931 290.655 L 562.172 288.946 L 572.079 288.545 C 572.59 288.545 572.979 288.207 573.077 287.722 L 574.14 283.031 C 576.595 281.973 576.52 279.769 576.52 279.769 Z  M 572.371 287.616 C 572.346 287.679 572.298 287.912 572.054 287.912 L 562.221 288.334 L 559.933 281.707 L 569.253 282.182 C 569.959 282.932 571.128 283.391 572.343 283.391 C 572.343 283.391 572.628 283.407 573.338 283.276 L 572.371 287.616 Z  M 575.063 280.043 C 575.063 280.169 574.868 280.232 574.747 280.232 L 573.096 280.232 C 572.95 280.232 572.877 280.359 572.877 280.464 L 572.877 281.98 C 572.877 282.085 572.731 282.106 572.61 282.106 L 572.1 282.106 C 571.954 282.106 571.906 282.106 571.906 281.98 L 571.906 280.464 C 571.906 280.359 571.76 280.232 571.614 280.232 L 569.963 280.232 C 569.817 280.232 569.72 280.148 569.72 280.043 L 569.72 279.643 C 569.72 279.516 569.817 279.39 569.963 279.39 L 571.614 279.39 C 571.736 279.39 571.906 279.327 571.906 279.222 L 571.906 277.706 C 571.906 277.6 571.978 277.495 572.1 277.495 L 572.61 277.495 C 572.731 277.495 572.877 277.6 572.877 277.706 L 572.877 279.222 C 572.877 279.327 572.974 279.39 573.096 279.39 L 574.747 279.39 C 574.868 279.39 575.063 279.537 575.063 279.643 C 575.063 279.643 575.063 280.043 575.063 280.043 Z " fill="rgb(0,0,0)"/><ellipse vector-effect="non-scaling-stroke" cx="570.8767346549619" cy="292.7708555706969" rx="0.9799093383824129" ry="0.8496202592014015" fill="rgb(0,0,0)"/><ellipse vector-effect="non-scaling-stroke" cx="560.5684583759823" cy="292.7708555706969" rx="0.9799093383824129" ry="0.8496202592014015" fill="rgb(0,0,0)"/></g></svg>