<?xml version="1.0" encoding="UTF-8" standalone="no"?><!-- Generator: Gravit.io --><svg xmlns="http://www.w3.org/2000/svg" xmlns:xlink="http://www.w3.org/1999/xlink" style="isolation:isolate" viewBox="541.089 231.211 50.284 33.698" width="50.284pt" height="33.698pt"><defs><clipPath id="_clipPath_IL6gxecvKsHZiH8N362RB43YVhlLLxy6"><rect x="541.089" y="231.211" width="50.284" height="33.698"/></clipPath></defs><g clip-path="url(#_clipPath_IL6gxecvKsHZiH8N362RB43YVhlLLxy6)"><ellipse vector-effect="non-scaling-stroke" cx="566.2457943166012" cy="247.99849761544863" rx="24.453790775016955" ry="16.221051078409687" fill="rgb(152,238,146)" stroke-width="0.512" stroke="rgb(79,78,78)" stroke-linejoin="miter" stroke-linecap="square" stroke-miterlimit="3"/><ellipse vector-effect="non-scaling-stroke" cx="566.2311744315859" cy="248.05974921100886" rx="24.878110920931704" ry="16.585407280621112" fill="none" stroke-width="0.528" stroke="rgb(79,78,78)" stroke-linejoin="miter" stroke-linecap="square" stroke-miterlimit="3"/><path d=" M 576.52 242.884 C 576.52 240.904 574.65 239.262 572.367 239.262 C 570.084 239.262 568.19 240.904 568.19 242.884 C 568.19 243.536 568.395 244.163 568.735 244.689 L 559.714 244.21 L 559.349 243.155 C 559.3 242.986 559.008 242.437 557.475 242.374 C 556.875 242.342 556.845 242.596 556.845 242.596 C 556.719 242.978 557.11 242.965 557.11 242.965 C 558.181 242.965 558.57 243.197 558.619 243.281 L 561.54 251.702 L 560.274 253.432 C 560.225 253.495 559.982 253.791 560.177 254.107 C 560.323 254.34 560.615 254.403 561.028 254.403 L 571.665 254.403 C 571.835 254.403 571.957 254.572 571.957 254.698 C 571.957 254.867 572.127 255.036 572.322 255.036 C 572.517 255.036 572.687 254.846 572.687 254.677 C 572.687 254.192 572.225 253.77 571.665 253.77 L 560.931 253.77 L 562.172 252.06 L 572.079 251.659 C 572.59 251.659 572.979 251.322 573.077 250.836 L 574.14 246.146 C 576.595 245.088 576.52 242.884 576.52 242.884 Z  M 572.371 250.731 C 572.346 250.794 572.298 251.026 572.054 251.026 L 562.221 251.448 L 559.933 244.822 L 569.253 245.296 C 569.959 246.047 571.128 246.505 572.343 246.505 C 572.343 246.505 572.628 246.521 573.338 246.391 L 572.371 250.731 Z  M 575.063 243.157 C 575.063 243.284 574.868 243.347 574.747 243.347 L 573.096 243.347 C 572.95 243.347 572.877 243.473 572.877 243.579 L 572.877 245.095 C 572.877 245.2 572.731 245.221 572.61 245.221 L 572.1 245.221 C 571.954 245.221 571.906 245.221 571.906 245.095 L 571.906 243.579 C 571.906 243.473 571.76 243.347 571.614 243.347 L 569.963 243.347 C 569.817 243.347 569.72 243.263 569.72 243.157 L 569.72 242.757 C 569.72 242.631 569.817 242.505 569.963 242.505 L 571.614 242.505 C 571.736 242.505 571.906 242.442 571.906 242.336 L 571.906 240.82 C 571.906 240.715 571.978 240.61 572.1 240.61 L 572.61 240.61 C 572.731 240.61 572.877 240.715 572.877 240.82 L 572.877 242.336 C 572.877 242.442 572.974 242.505 573.096 242.505 L 574.747 242.505 C 574.868 242.505 575.063 242.652 575.063 242.757 C 575.063 242.757 575.063 243.157 575.063 243.157 Z " fill="rgb(79,78,78)"/><ellipse vector-effect="non-scaling-stroke" cx="570.8621147699471" cy="255.88555244593562" rx="0.9799093383824129" ry="0.8496202592014015" fill="rgb(79,78,78)"/><ellipse vector-effect="non-scaling-stroke" cx="560.5538384909676" cy="255.88555244593562" rx="0.9799093383824129" ry="0.8496202592014015" fill="rgb(79,78,78)"/></g></svg>