<?xml version="1.0" encoding="UTF-8" standalone="no"?><!-- Generator: Gravit.io --><svg xmlns="http://www.w3.org/2000/svg" xmlns:xlink="http://www.w3.org/1999/xlink" style="isolation:isolate" viewBox="644.774 60.383 47.986 43.295" width="47.986pt" height="43.295pt"><defs><clipPath id="_clipPath_gErqyux5sMm3CBhStILNSl4wSBnscUnE"><rect x="644.774" y="60.383" width="47.986" height="43.295"/></clipPath></defs><g clip-path="url(#_clipPath_gErqyux5sMm3CBhStILNSl4wSBnscUnE)"><g><path d=" M 675.282 64.914 L 678.906 64.914 C 682.574 64.914 685.552 67.892 685.552 71.559 L 685.552 92.502 C 685.552 96.169 682.574 99.147 678.906 99.147 L 655.95 99.147 C 652.283 99.147 649.305 96.169 649.305 92.502 L 649.305 71.559 C 649.305 67.892 652.283 64.914 655.95 64.914 L 661.991 64.914 Q 668.636 64.914 675.282 64.914 Z " fill="rgb(235,196,131)" vector-effect="non-scaling-stroke" stroke-width="3.021" stroke="rgb(79,78,78)" stroke-linejoin="miter" stroke-linecap="square" stroke-miterlimit="3"/></g><path d=" M 672.39 86.504 C 671.6 86.504 670.89 86.814 670.36 87.314 L 663.3 83.204 C 663.35 82.974 663.39 82.744 663.39 82.504 C 663.39 82.264 663.35 82.034 663.3 81.804 L 670.35 77.694 C 670.88 78.194 671.6 78.504 672.39 78.504 C 674.05 78.504 675.39 77.164 675.39 75.504 C 675.39 73.844 674.05 72.504 672.39 72.504 C 670.73 72.504 669.39 73.844 669.39 75.504 C 669.39 75.744 669.43 75.984 669.48 76.204 L 662.43 80.314 C 661.89 79.814 661.18 79.504 660.39 79.504 C 658.73 79.504 657.39 80.844 657.39 82.504 C 657.39 84.164 658.73 85.504 660.39 85.504 C 661.18 85.504 661.89 85.194 662.43 84.694 L 669.48 88.814 C 669.43 89.034 669.39 89.264 669.39 89.504 C 669.39 91.164 670.73 92.504 672.39 92.504 C 674.05 92.504 675.39 91.164 675.39 89.504 C 675.39 87.844 674.05 86.504 672.39 86.504 Z  M 672.39 74.504 C 672.94 74.504 673.39 74.954 673.39 75.504 C 673.39 76.054 672.94 76.504 672.39 76.504 C 671.84 76.504 671.39 76.054 671.39 75.504 C 671.39 74.954 671.84 74.504 672.39 74.504 Z  M 660.39 83.504 C 659.84 83.504 659.39 83.054 659.39 82.504 C 659.39 81.954 659.84 81.504 660.39 81.504 C 660.94 81.504 661.39 81.954 661.39 82.504 C 661.39 83.054 660.94 83.504 660.39 83.504 Z  M 672.39 90.504 C 671.84 90.504 671.39 90.054 671.39 89.504 C 671.39 88.954 671.84 88.504 672.39 88.504 C 672.94 88.504 673.39 88.954 673.39 89.504 C 673.39 90.054 672.94 90.504 672.39 90.504 Z " fill="rgb(79,78,78)"/></g></svg>