<?xml version="1.0" standalone="no"?><!-- Generator: Gravit.io --><svg xmlns="http://www.w3.org/2000/svg" xmlns:xlink="http://www.w3.org/1999/xlink" style="isolation:isolate" viewBox="360.203 161.723 47.986 43.295" width="47.986px" height="43.295px"><defs><clipPath id="_clipPath_dP7OGNvqmPGeQnZCf3fryHOAzFtu7kWj"><rect x="360.203" y="161.723" width="47.986" height="43.295"/></clipPath></defs><g clip-path="url(#_clipPath_dP7OGNvqmPGeQnZCf3fryHOAzFtu7kWj)"><g><path d=" M 390.71 166.254 L 394.335 166.254 C 398.002 166.254 400.98 169.231 400.98 172.899 L 400.98 193.841 C 400.98 197.509 398.002 200.487 394.335 200.487 L 371.379 200.487 C 367.711 200.487 364.733 197.509 364.733 193.841 L 364.733 172.899 C 364.733 169.231 367.711 166.254 371.379 166.254 L 377.42 166.254 Q 384.065 166.254 390.71 166.254 Z " fill="rgb(90,178,205)" vector-effect="non-scaling-stroke" stroke-width="3.021" stroke="rgb(241,241,241)" stroke-linejoin="miter" stroke-linecap="square" stroke-miterlimit="3"/><path d=" M 385.135 178.344 L 386.817 178.344 C 388.519 178.344 389.901 179.726 389.901 181.428 L 389.901 191.146 C 389.901 192.848 388.519 194.23 386.817 194.23 L 376.164 194.23 C 374.462 194.23 373.081 192.848 373.081 191.146 L 373.081 181.428 C 373.081 179.726 374.462 178.344 376.164 178.344 L 378.968 178.344 Q 382.052 178.344 385.135 178.344 Z " fill="none" vector-effect="non-scaling-stroke" stroke-width="1.402" stroke="rgb(255,255,255)" stroke-linejoin="miter" stroke-linecap="square" stroke-miterlimit="3"/></g><g><g><path d=" M 395.075 172.51 L 384.303 172.429 C 383.716 172.429 383.241 172.904 383.241 173.491 C 383.241 174.077 383.716 174.553 384.303 174.553 L 392.511 174.634 L 382.13 185.036 C 381.715 185.451 381.715 186.123 382.13 186.538 C 382.545 186.953 383.217 186.953 383.632 186.538 L 394.013 176.136 L 393.998 183.185 C 393.998 183.772 394.473 184.247 395.06 184.247 C 395.353 184.247 395.619 184.128 395.811 183.936 C 396.003 183.744 396.122 183.478 396.122 183.185 L 396.137 173.572 C 396.137 172.986 395.661 172.51 395.075 172.51 Z " fill="rgb(255,255,255)"/></g></g></g></svg>