<?xml version="1.0" standalone="no"?><!-- Generator: Gravit.io --><svg xmlns="http://www.w3.org/2000/svg" xmlns:xlink="http://www.w3.org/1999/xlink" style="isolation:isolate" viewBox="358.799 149.853 47.986 43.295" width="47.986px" height="43.295px"><defs><clipPath id="_clipPath_YYsW5KPVAPqXkv2WPkMuiAu4dJNBHe6t"><rect x="358.799" y="149.853" width="47.986" height="43.295"/></clipPath></defs><g clip-path="url(#_clipPath_YYsW5KPVAPqXkv2WPkMuiAu4dJNBHe6t)"><g><path d=" M 389.306 154.383 L 392.931 154.383 C 396.599 154.383 399.576 157.361 399.576 161.029 L 399.576 181.971 C 399.576 185.639 396.599 188.617 392.931 188.617 L 369.975 188.617 C 366.307 188.617 363.329 185.639 363.329 181.971 L 363.329 161.029 C 363.329 157.361 366.307 154.383 369.975 154.383 L 376.016 154.383 Q 382.661 154.383 389.306 154.383 Z " fill="rgb(90,178,205)" vector-effect="non-scaling-stroke" stroke-width="3.021" stroke="rgb(79,78,78)" stroke-linejoin="miter" stroke-linecap="square" stroke-miterlimit="3"/><path d=" M 383.732 166.474 L 385.414 166.474 C 387.116 166.474 388.497 167.856 388.497 169.558 L 388.497 179.276 C 388.497 180.978 387.116 182.36 385.414 182.36 L 374.76 182.36 C 373.058 182.36 371.677 180.978 371.677 179.276 L 371.677 169.558 C 371.677 167.856 373.058 166.474 374.76 166.474 L 377.564 166.474 Q 380.648 166.474 383.732 166.474 Z " fill="none" vector-effect="non-scaling-stroke" stroke-width="1.402" stroke="rgb(0,0,0)" stroke-linejoin="miter" stroke-linecap="square" stroke-miterlimit="3"/></g><g><g><mask id="_mask_55W4LftP6CMLB6AVr9iSUGEFhy58EMc4" x="-200%" y="-200%" width="400%" height="400%"><rect x="-200%" y="-200%" width="400%" height="400%" style="fill:white;"/><path d=" M 393.671 160.64 L 382.899 160.559 C 382.312 160.559 381.837 161.034 381.837 161.621 C 381.837 162.207 382.312 162.683 382.899 162.683 L 391.107 162.764 L 380.726 173.166 C 380.311 173.581 380.311 174.253 380.726 174.668 C 381.141 175.082 381.813 175.082 382.228 174.668 L 392.609 164.266 L 392.594 171.315 C 392.594 171.901 393.07 172.377 393.656 172.377 C 393.949 172.377 394.215 172.258 394.407 172.066 C 394.599 171.874 394.718 171.608 394.718 171.315 L 394.733 161.702 C 394.733 161.116 394.258 160.64 393.671 160.64 Z " fill="black" stroke="none"/></mask><path d=" M 393.671 160.64 L 382.899 160.559 C 382.312 160.559 381.837 161.034 381.837 161.621 C 381.837 162.207 382.312 162.683 382.899 162.683 L 391.107 162.764 L 380.726 173.166 C 380.311 173.581 380.311 174.253 380.726 174.668 C 381.141 175.082 381.813 175.082 382.228 174.668 L 392.609 164.266 L 392.594 171.315 C 392.594 171.901 393.07 172.377 393.656 172.377 C 393.949 172.377 394.215 172.258 394.407 172.066 C 394.599 171.874 394.718 171.608 394.718 171.315 L 394.733 161.702 C 394.733 161.116 394.258 160.64 393.671 160.64 Z " fill="rgb(0,0,0)" mask="url(#_mask_55W4LftP6CMLB6AVr9iSUGEFhy58EMc4)" vector-effect="non-scaling-stroke" stroke-width="0.17" stroke="rgb(0,0,0)" stroke-linejoin="miter" stroke-linecap="butt" stroke-miterlimit="4"/><path d=" M 393.671 160.64 L 382.899 160.559 C 382.312 160.559 381.837 161.034 381.837 161.621 C 381.837 162.207 382.312 162.683 382.899 162.683 L 391.107 162.764 L 380.726 173.166 C 380.311 173.581 380.311 174.253 380.726 174.668 C 381.141 175.082 381.813 175.082 382.228 174.668 L 392.609 164.266 L 392.594 171.315 C 392.594 171.901 393.07 172.377 393.656 172.377 C 393.949 172.377 394.215 172.258 394.407 172.066 C 394.599 171.874 394.718 171.608 394.718 171.315 L 394.733 161.702 C 394.733 161.116 394.258 160.64 393.671 160.64 Z " fill="rgb(0,0,0)"/></g></g></g></svg>