<?xml version="1.0" encoding="UTF-8" standalone="no"?><!-- Generator: Gravit.io --><svg xmlns="http://www.w3.org/2000/svg" xmlns:xlink="http://www.w3.org/1999/xlink" style="isolation:isolate" viewBox="358.799 -60.647 47.986 43.295" width="47.986pt" height="43.295pt"><defs><clipPath id="_clipPath_bb2byVSeTXRjXkirEUlTwwYjxhmyYzNw"><rect x="358.799" y="-60.647" width="47.986" height="43.295"/></clipPath></defs><g clip-path="url(#_clipPath_bb2byVSeTXRjXkirEUlTwwYjxhmyYzNw)"><g><path d=" M 389.306 -56.117 L 392.931 -56.117 C 396.599 -56.117 399.576 -53.139 399.576 -49.471 L 399.576 -28.529 C 399.576 -24.861 396.599 -21.883 392.931 -21.883 L 369.975 -21.883 C 366.307 -21.883 363.329 -24.861 363.329 -28.529 L 363.329 -49.471 C 363.329 -53.139 366.307 -56.117 369.975 -56.117 L 376.016 -56.117 Q 382.661 -56.117 389.306 -56.117 Z " fill="rgb(242,195,120)" vector-effect="non-scaling-stroke" stroke-width="3.021" stroke="rgb(79,78,78)" stroke-linejoin="miter" stroke-linecap="square" stroke-miterlimit="3"/><path d=" M 383.732 -44.026 L 385.414 -44.026 C 387.116 -44.026 388.497 -42.644 388.497 -40.942 L 388.497 -31.224 C 388.497 -29.522 387.116 -28.14 385.414 -28.14 L 374.76 -28.14 C 373.058 -28.14 371.677 -29.522 371.677 -31.224 L 371.677 -40.942 C 371.677 -42.644 373.058 -44.026 374.76 -44.026 L 377.564 -44.026 Q 380.648 -44.026 383.732 -44.026 Z " fill="none" vector-effect="non-scaling-stroke" stroke-width="1.402" stroke="rgb(255,255,255)" stroke-linejoin="miter" stroke-linecap="square" stroke-miterlimit="3"/></g><g><g><path d=" M 393.671 -49.86 L 382.899 -49.941 C 382.312 -49.941 381.837 -49.466 381.837 -48.879 C 381.837 -48.293 382.312 -47.817 382.899 -47.817 L 391.107 -47.736 L 380.726 -37.334 C 380.311 -36.919 380.311 -36.247 380.726 -35.832 C 381.141 -35.418 381.813 -35.418 382.228 -35.832 L 392.609 -46.234 L 392.594 -39.185 C 392.594 -38.599 393.07 -38.123 393.656 -38.123 C 393.949 -38.123 394.215 -38.242 394.407 -38.434 C 394.599 -38.626 394.718 -38.892 394.718 -39.185 L 394.733 -48.798 C 394.733 -49.384 394.258 -49.86 393.671 -49.86 Z " fill="rgb(255,255,255)"/></g></g></g></svg>