<?xml version="1.0" encoding="UTF-8" standalone="no"?><!-- Generator: Gravit.io --><svg xmlns="http://www.w3.org/2000/svg" xmlns:xlink="http://www.w3.org/1999/xlink" style="isolation:isolate" viewBox="644.774 69.056 47.986 43.295" width="47.986pt" height="43.295pt"><defs><clipPath id="_clipPath_JGaTq89s83mh0wqDQK6JdFEGnQxQJXdN"><rect x="644.774" y="69.056" width="47.986" height="43.295"/></clipPath></defs><g clip-path="url(#_clipPath_JGaTq89s83mh0wqDQK6JdFEGnQxQJXdN)"><g><path d=" M 675.282 73.587 L 678.906 73.587 C 682.574 73.587 685.552 76.564 685.552 80.232 L 685.552 101.175 C 685.552 104.842 682.574 107.82 678.906 107.82 L 655.95 107.82 C 652.283 107.82 649.305 104.842 649.305 101.175 L 649.305 80.232 C 649.305 76.564 652.283 73.587 655.95 73.587 L 661.991 73.587 Q 668.636 73.587 675.282 73.587 Z " fill="rgb(235,196,131)" vector-effect="non-scaling-stroke" stroke-width="3.021" stroke="rgb(241,241,241)" stroke-linejoin="miter" stroke-linecap="square" stroke-miterlimit="3"/></g><path d=" M 673.239 94.703 C 672.449 94.703 671.739 95.013 671.209 95.513 L 664.149 91.403 C 664.199 91.173 664.239 90.943 664.239 90.703 C 664.239 90.463 664.199 90.233 664.149 90.003 L 671.199 85.893 C 671.729 86.393 672.449 86.703 673.239 86.703 C 674.899 86.703 676.239 85.363 676.239 83.703 C 676.239 82.043 674.899 80.703 673.239 80.703 C 671.579 80.703 670.239 82.043 670.239 83.703 C 670.239 83.943 670.279 84.183 670.329 84.403 L 663.279 88.513 C 662.739 88.013 662.029 87.703 661.239 87.703 C 659.579 87.703 658.239 89.043 658.239 90.703 C 658.239 92.363 659.579 93.703 661.239 93.703 C 662.029 93.703 662.739 93.393 663.279 92.893 L 670.329 97.013 C 670.279 97.233 670.239 97.463 670.239 97.703 C 670.239 99.363 671.579 100.703 673.239 100.703 C 674.899 100.703 676.239 99.363 676.239 97.703 C 676.239 96.043 674.899 94.703 673.239 94.703 Z  M 673.239 82.703 C 673.789 82.703 674.239 83.153 674.239 83.703 C 674.239 84.253 673.789 84.703 673.239 84.703 C 672.689 84.703 672.239 84.253 672.239 83.703 C 672.239 83.153 672.689 82.703 673.239 82.703 Z  M 661.239 91.703 C 660.689 91.703 660.239 91.253 660.239 90.703 C 660.239 90.153 660.689 89.703 661.239 89.703 C 661.789 89.703 662.239 90.153 662.239 90.703 C 662.239 91.253 661.789 91.703 661.239 91.703 Z  M 673.239 98.703 C 672.689 98.703 672.239 98.253 672.239 97.703 C 672.239 97.153 672.689 96.703 673.239 96.703 C 673.789 96.703 674.239 97.153 674.239 97.703 C 674.239 98.253 673.789 98.703 673.239 98.703 Z " fill="rgb(241,241,241)"/></g></svg>