<?xml version="1.0" encoding="UTF-8" standalone="no"?><!-- Generator: Gravit.io --><svg xmlns="http://www.w3.org/2000/svg" xmlns:xlink="http://www.w3.org/1999/xlink" style="isolation:isolate" viewBox="690.05 419.164 50.284 33.698" width="50.284pt" height="33.698pt"><defs><clipPath id="_clipPath_3dtSILqimOm61KocLTb7ndaYdTT9gT54"><rect x="690.05" y="419.164" width="50.284" height="33.698"/></clipPath></defs><g clip-path="url(#_clipPath_3dtSILqimOm61KocLTb7ndaYdTT9gT54)"><ellipse vector-effect="non-scaling-stroke" cx="715.1896101683843" cy="435.95179786840777" rx="24.453790775016955" ry="16.221051078409687" fill="rgb(3,230,3)" stroke-width="0.512" stroke="rgb(79,78,78)" stroke-linejoin="miter" stroke-linecap="square" stroke-miterlimit="3"/><ellipse vector-effect="non-scaling-stroke" cx="715.1918103761584" cy="436.01304946396795" rx="24.878110920931704" ry="16.585407280621098" fill="none" stroke-width="0.528" stroke="rgb(79,78,78)" stroke-linejoin="miter" stroke-linecap="square" stroke-miterlimit="3"/><path d=" M 691.063 435.586 C 690.586 443.955 701.657 451.85 715.154 451.85 C 728.65 451.85 739.169 444.364 739.237 435.654 C 738.323 434.659 728.65 435.629 715.154 435.629 C 701.657 435.629 691.221 433.91 691.063 435.586 Z " fill="rgb(53,189,53)"/><g><g><g><path d=" M 712.058 440.529 C 711.197 440.529 710.492 441.083 710.492 441.76 C 710.492 442.436 711.197 442.99 712.058 442.99 C 712.919 442.99 713.623 442.436 713.623 441.76 C 713.623 441.083 712.919 440.529 712.058 440.529 Z  M 707.361 430.687 L 707.361 431.917 L 708.927 431.917 L 711.744 436.592 L 710.649 438.069 C 710.57 438.253 710.492 438.499 710.492 438.684 C 710.492 439.361 711.197 439.914 712.058 439.914 L 721.45 439.914 L 721.45 438.684 L 712.371 438.684 C 712.292 438.684 712.214 438.622 712.214 438.561 L 712.214 438.499 L 712.919 437.454 L 718.711 437.454 C 719.337 437.454 719.807 437.208 720.041 436.839 L 722.859 432.84 C 723.016 432.717 723.016 432.656 723.016 432.533 C 723.016 432.164 722.703 431.917 722.233 431.917 L 710.649 431.917 L 709.944 430.687 L 707.361 430.687 Z  M 719.885 440.529 C 719.024 440.529 718.319 441.083 718.319 441.76 C 718.319 442.436 719.024 442.99 719.885 442.99 C 720.746 442.99 721.45 442.436 721.45 441.76 C 721.45 441.083 720.746 440.529 719.885 440.529 Z " fill="rgb(0,0,0)"/></g></g></g></g></svg>