<?xml version="1.0" encoding="UTF-8" standalone="no"?><!-- Generator: Gravit.io --><svg xmlns="http://www.w3.org/2000/svg" xmlns:xlink="http://www.w3.org/1999/xlink" style="isolation:isolate" viewBox="690.05 423.282 50.284 33.698" width="50.284pt" height="33.698pt"><defs><clipPath id="_clipPath_QmhIb0chvmE2dmMHOvNS6V8jMhMh4HaB"><rect x="690.05" y="423.282" width="50.284" height="33.698"/></clipPath></defs><g clip-path="url(#_clipPath_QmhIb0chvmE2dmMHOvNS6V8jMhMh4HaB)"><ellipse vector-effect="non-scaling-stroke" cx="715.2064302611734" cy="440.0699848763319" rx="24.453790775016955" ry="16.221051078409687" fill="rgb(3,230,3)" stroke-width="0.512" stroke="rgb(226,228,232)" stroke-opacity="100" stroke-linejoin="miter" stroke-linecap="square" stroke-miterlimit="3"/><g><g><g><path d=" M 712.058 444.648 C 711.197 444.648 710.492 445.201 710.492 445.878 C 710.492 446.554 711.197 447.108 712.058 447.108 C 712.919 447.108 713.623 446.554 713.623 445.878 C 713.623 445.201 712.919 444.648 712.058 444.648 Z  M 707.361 434.805 L 707.361 436.036 L 708.927 436.036 L 711.744 440.711 L 710.649 442.187 C 710.57 442.372 710.492 442.618 710.492 442.802 C 710.492 443.479 711.197 444.032 712.058 444.032 L 721.45 444.032 L 721.45 442.802 L 712.371 442.802 C 712.292 442.802 712.214 442.741 712.214 442.679 L 712.214 442.618 L 712.919 441.572 L 718.711 441.572 C 719.337 441.572 719.807 441.326 720.041 440.957 L 722.859 436.958 C 723.016 436.835 723.016 436.774 723.016 436.651 C 723.016 436.282 722.703 436.036 722.233 436.036 L 710.649 436.036 L 709.944 434.805 L 707.361 434.805 Z  M 719.885 444.648 C 719.024 444.648 718.319 445.201 718.319 445.878 C 718.319 446.554 719.024 447.108 719.885 447.108 C 720.746 447.108 721.45 446.554 721.45 445.878 C 721.45 445.201 720.746 444.648 719.885 444.648 Z " fill="rgb(131,131,131)"/></g></g></g><ellipse vector-effect="non-scaling-stroke" cx="715.1918103761584" cy="440.1312364718921" rx="24.878110920931704" ry="16.585407280621098" fill="none" stroke-width="0.528" stroke="rgb(235,235,235)" stroke-opacity="100" stroke-linejoin="miter" stroke-linecap="square" stroke-miterlimit="3"/></g></svg>