<?xml version="1.0" encoding="UTF-8" standalone="no"?><!-- Generator: Gravit.io --><svg xmlns="http://www.w3.org/2000/svg" xmlns:xlink="http://www.w3.org/1999/xlink" style="isolation:isolate" viewBox="690.05 419.164 50.284 33.698" width="50.284pt" height="33.698pt"><defs><clipPath id="_clipPath_s0hmz0SIWYrkQUUaSbT8AhXZIK5wqLlB"><rect x="690.05" y="419.164" width="50.284" height="33.698"/></clipPath></defs><g clip-path="url(#_clipPath_s0hmz0SIWYrkQUUaSbT8AhXZIK5wqLlB)"><ellipse vector-effect="non-scaling-stroke" cx="715.2064302611736" cy="435.9517978684077" rx="24.453790775016955" ry="16.221051078409687" fill="rgb(3,230,3)" stroke-width="0.512" stroke="rgb(79,78,78)" stroke-linejoin="miter" stroke-linecap="square" stroke-miterlimit="3"/><g><g><g><path d=" M 712.058 440.348 C 711.197 440.348 710.492 440.902 710.492 441.578 C 710.492 442.255 711.197 442.808 712.058 442.808 C 712.919 442.808 713.623 442.255 713.623 441.578 C 713.623 440.902 712.919 440.348 712.058 440.348 Z  M 707.361 430.506 L 707.361 431.736 L 708.927 431.736 L 711.744 436.411 L 710.649 437.887 C 710.57 438.072 710.492 438.318 710.492 438.503 C 710.492 439.179 711.197 439.733 712.058 439.733 L 721.45 439.733 L 721.45 438.503 L 712.371 438.503 C 712.292 438.503 712.214 438.441 712.214 438.38 L 712.214 438.318 L 712.919 437.272 L 718.711 437.272 C 719.337 437.272 719.807 437.026 720.041 436.657 L 722.859 432.659 C 723.016 432.536 723.016 432.474 723.016 432.351 C 723.016 431.982 722.703 431.736 722.233 431.736 L 710.649 431.736 L 709.944 430.506 L 707.361 430.506 Z  M 719.885 440.348 C 719.024 440.348 718.319 440.902 718.319 441.578 C 718.319 442.255 719.024 442.808 719.885 442.808 C 720.746 442.808 721.45 442.255 721.45 441.578 C 721.45 440.902 720.746 440.348 719.885 440.348 Z " fill="rgb(79,78,78)"/></g></g></g><ellipse vector-effect="non-scaling-stroke" cx="715.1918103761584" cy="436.01304946396795" rx="24.878110920931704" ry="16.585407280621098" fill="none" stroke-width="0.528" stroke="rgb(79,78,78)" stroke-linejoin="miter" stroke-linecap="square" stroke-miterlimit="3"/></g></svg>