<?xml version="1.0" encoding="UTF-8" standalone="no"?><!-- Generator: Gravit.io --><svg xmlns="http://www.w3.org/2000/svg" xmlns:xlink="http://www.w3.org/1999/xlink" style="isolation:isolate" viewBox="484.089 230.385 50.284 33.698" width="50.284pt" height="33.698pt"><defs><clipPath id="_clipPath_U0Qt3TaZFNGoUw7WPJiSPpBiZfWCoh05"><rect x="484.089" y="230.385" width="50.284" height="33.698"/></clipPath></defs><g clip-path="url(#_clipPath_U0Qt3TaZFNGoUw7WPJiSPpBiZfWCoh05)"><ellipse vector-effect="non-scaling-stroke" cx="509.2457943166012" cy="247.17300848041225" rx="24.453790775016984" ry="16.221051078409687" fill="rgb(128,167,236)" stroke-width="0.512" stroke="rgb(79,78,78)" stroke-linejoin="miter" stroke-linecap="square" stroke-miterlimit="3"/><ellipse vector-effect="non-scaling-stroke" cx="509.23117443158606" cy="247.2342600759725" rx="24.878110920931675" ry="16.585407280621112" fill="none" stroke-width="0.528" stroke="rgb(79,78,78)" stroke-linejoin="miter" stroke-linecap="square" stroke-miterlimit="3"/><ellipse vector-effect="non-scaling-stroke" cx="515.7712839001908" cy="256.5222467864227" rx="1.1083987316629873" ry="1.0305511371579996" fill="rgb(79,78,78)"/><ellipse vector-effect="non-scaling-stroke" cx="504.1113477145496" cy="256.5222467864227" rx="1.1083987316629873" ry="1.0305511371579996" fill="rgb(79,78,78)"/><path d=" M 519.536 244.005 L 518.242 250.123 C 518.132 250.712 517.691 251.121 517.113 251.121 L 505.908 251.608 L 504.504 253.681 L 516.645 253.681 C 517.278 253.681 517.801 254.193 517.801 254.782 C 517.801 254.986 517.609 255.217 517.388 255.217 C 517.168 255.217 516.975 255.012 516.975 254.807 C 516.975 254.654 516.838 254.449 516.645 254.449 L 504.614 254.449 C 504.146 254.449 503.816 254.372 503.65 254.09 C 503.43 253.707 503.706 253.348 503.761 253.271 L 505.192 251.172 L 501.888 240.959 C 501.833 240.857 501.393 240.575 500.182 240.575 C 500.182 240.575 499.74 240.591 499.882 240.127 C 499.882 240.127 499.916 239.819 500.595 239.858 C 502.329 239.935 502.659 240.601 502.714 240.805 L 503.127 242.085 L 518.407 242.956 C 519.013 242.956 519.536 243.416 519.536 244.005 Z " fill="rgb(79,78,78)"/></g></svg>