<?xml version="1.0" encoding="UTF-8" standalone="no"?><!-- Generator: Gravit.io --><svg xmlns="http://www.w3.org/2000/svg" xmlns:xlink="http://www.w3.org/1999/xlink" style="isolation:isolate" viewBox="484.528 269.257 50.284 33.698" width="50.284pt" height="33.698pt"><defs><clipPath id="_clipPath_tTBa6LniaoOixHXaa4H50S5AFyKFt092"><rect x="484.528" y="269.257" width="50.284" height="33.698"/></clipPath></defs><g clip-path="url(#_clipPath_tTBa6LniaoOixHXaa4H50S5AFyKFt092)"><ellipse vector-effect="non-scaling-stroke" cx="509.6847343475313" cy="286.04483465228725" rx="24.453790775016984" ry="16.221051078409687" fill="rgb(128,167,236)" stroke-width="0.512" stroke="rgb(79,78,78)" stroke-linejoin="miter" stroke-linecap="square" stroke-miterlimit="3"/><path d=" M 485.615 285.73 C 485.139 294.099 496.21 301.994 509.706 301.994 C 523.203 301.994 533.722 294.508 533.79 285.798 C 532.875 284.803 523.203 285.773 509.706 285.773 C 496.21 285.773 485.773 284.054 485.615 285.73 Z " fill="rgb(115,156,248)"/><ellipse vector-effect="non-scaling-stroke" cx="509.6701144625159" cy="286.1060862478475" rx="24.878110920931675" ry="16.585407280621098" fill="none" stroke-width="0.528" stroke="rgb(79,78,78)" stroke-linejoin="miter" stroke-linecap="square" stroke-miterlimit="3"/><ellipse vector-effect="non-scaling-stroke" cx="515.3221630797357" cy="292.8144720272918" rx="1.1083987316629873" ry="1.0305511371579996" fill="rgb(0,0,0)"/><ellipse vector-effect="non-scaling-stroke" cx="503.66222689409466" cy="292.8144720272918" rx="1.1083987316629873" ry="1.0305511371579996" fill="rgb(0,0,0)"/><path d=" M 519.087 280.297 L 517.793 286.415 C 517.683 287.004 517.242 287.413 516.664 287.413 L 505.459 287.9 L 504.055 289.973 L 516.196 289.973 C 516.829 289.973 517.352 290.485 517.352 291.074 C 517.352 291.279 517.16 291.509 516.939 291.509 C 516.719 291.509 516.526 291.304 516.526 291.099 C 516.526 290.946 516.389 290.741 516.196 290.741 L 504.165 290.741 C 503.697 290.741 503.367 290.664 503.201 290.383 C 502.981 289.999 503.256 289.64 503.311 289.564 L 504.743 287.465 L 501.439 277.251 C 501.384 277.149 500.944 276.867 499.732 276.867 C 499.732 276.867 499.291 276.883 499.433 276.419 C 499.433 276.419 499.467 276.111 500.145 276.151 C 501.88 276.227 502.21 276.893 502.265 277.098 L 502.678 278.378 L 517.958 279.248 C 518.564 279.248 519.087 279.709 519.087 280.297 Z " fill="rgb(0,0,0)"/></g></svg>