<?xml version="1.0" encoding="UTF-8" standalone="no"?><!-- Generator: Gravit.io --><svg xmlns="http://www.w3.org/2000/svg" xmlns:xlink="http://www.w3.org/1999/xlink" style="isolation:isolate" viewBox="483.65 191.385 50.284 33.698" width="50.284pt" height="33.698pt"><defs><clipPath id="_clipPath_q5PIis3H9GKarliEKbuh1vuUDxAGBT6j"><rect x="483.65" y="191.385" width="50.284" height="33.698"/></clipPath></defs><g clip-path="url(#_clipPath_q5PIis3H9GKarliEKbuh1vuUDxAGBT6j)"><ellipse vector-effect="non-scaling-stroke" cx="508.80685428567153" cy="208.17300848041225" rx="24.453790775016984" ry="16.221051078409687" fill="rgb(128,167,236)" stroke-width="0.512" stroke="rgb(226,228,232)" stroke-opacity="100" stroke-linejoin="miter" stroke-linecap="square" stroke-miterlimit="3"/><ellipse vector-effect="non-scaling-stroke" cx="508.7922344006562" cy="208.2342600759725" rx="24.878110920931675" ry="16.585407280621126" fill="none" stroke-width="0.528" stroke="rgb(235,235,235)" stroke-opacity="100" stroke-linejoin="miter" stroke-linecap="square" stroke-miterlimit="3"/><ellipse vector-effect="non-scaling-stroke" cx="514.8686029266121" cy="216.0526578790475" rx="1.1083987316629873" ry="1.0305511371579996" fill="rgb(131,131,131)"/><ellipse vector-effect="non-scaling-stroke" cx="503.20866674097107" cy="216.0526578790475" rx="1.1083987316629873" ry="1.0305511371579996" fill="rgb(131,131,131)"/><path d=" M 518.633 203.536 L 517.339 209.653 C 517.229 210.242 516.789 210.652 516.21 210.652 L 505.005 211.138 L 503.601 213.211 L 515.742 213.211 C 516.376 213.211 516.899 213.723 516.899 214.312 C 516.899 214.517 516.706 214.747 516.486 214.747 C 516.266 214.747 516.073 214.542 516.073 214.338 C 516.073 214.184 515.935 213.979 515.742 213.979 L 503.711 213.979 C 503.243 213.979 502.913 213.902 502.748 213.621 C 502.528 213.237 502.803 212.879 502.858 212.802 L 504.29 210.703 L 500.986 200.489 C 500.931 200.387 500.49 200.105 499.279 200.105 C 499.279 200.105 498.838 200.121 498.979 199.658 C 498.979 199.658 499.014 199.35 499.692 199.389 C 501.426 199.466 501.757 200.131 501.812 200.336 L 502.225 201.616 L 517.504 202.486 C 518.11 202.486 518.633 202.947 518.633 203.536 Z " fill="rgb(131,131,131)"/></g></svg>